<svg xmlns="http://www.w3.org/2000/svg" width="800" height="560" viewBox="0 0 800 560" role="img">
<title>Poly1305 performance — old vs new</title>
<desc>Both implementations proven equal to the same Spec.poly1305 Median time per call; lower is faster. Median of 18 samples per point · Two runs · Lean 4.32.2 / macOS arm64 · Lower is faster</desc>
<rect width="100%" height="100%" fill="white"/>
<style>text { font-family: sans-serif; fill: #222; }</style>
<text x="400" y="29" text-anchor="middle" font-size="20">Poly1305 performance — old vs new</text>
<text x="400" y="51" text-anchor="middle" font-size="12">Both implementations proven equal to the same Spec.poly1305</text>
<line x1="75" y1="115" x2="75" y2="455" stroke="#555"/>
<line x1="75" y1="455" x2="775" y2="455" stroke="#555"/>
<text x="75.0" y="480" text-anchor="middle" font-size="12">0 B</text>
<text x="162.5" y="480" text-anchor="middle" font-size="12">15 B</text>
<text x="250.0" y="480" text-anchor="middle" font-size="12">16 B</text>
<text x="337.5" y="480" text-anchor="middle" font-size="12">17 B</text>
<text x="425.0" y="480" text-anchor="middle" font-size="12">64 B</text>
<text x="512.5" y="480" text-anchor="middle" font-size="12">256 B</text>
<text x="600.0" y="480" text-anchor="middle" font-size="12">1 KiB</text>
<text x="687.5" y="480" text-anchor="middle" font-size="12">4 KiB</text>
<text x="775.0" y="480" text-anchor="middle" font-size="12">16 KiB</text>
<line x1="75" y1="455.0" x2="775" y2="455.0" stroke="#ddd"/>
<text x="67" y="459.0" text-anchor="end" font-size="12">0</text>
<line x1="75" y1="387.0" x2="775" y2="387.0" stroke="#ddd"/>
<text x="67" y="391.0" text-anchor="end" font-size="12">0.528</text>
<line x1="75" y1="319.0" x2="775" y2="319.0" stroke="#ddd"/>
<text x="67" y="323.0" text-anchor="end" font-size="12">1.06</text>
<line x1="75" y1="251.0" x2="775" y2="251.0" stroke="#ddd"/>
<text x="67" y="255.0" text-anchor="end" font-size="12">1.58</text>
<line x1="75" y1="183.0" x2="775" y2="183.0" stroke="#ddd"/>
<text x="67" y="187.0" text-anchor="end" font-size="12">2.11</text>
<line x1="75" y1="115.0" x2="775" y2="115.0" stroke="#ddd"/>
<text x="67" y="119.0" text-anchor="end" font-size="12">2.64</text>
<polyline points="75.0,454.1 162.5,453.7 250.0,453.7 337.5,453.7 425.0,452.8 512.5,449.1 600.0,434.6 687.5,377.3 775.0,145.9" fill="none" stroke="#d1495b" stroke-width="3"/>
<circle cx="75.0" cy="454.1" r="4" fill="#d1495b"><title>uint64_limbs: 0 bytes, 0.007097 ms, 18 samples</title></circle>
<circle cx="162.5" cy="453.7" r="4" fill="#d1495b"><title>uint64_limbs: 15 bytes, 0.009910 ms, 18 samples</title></circle>
<circle cx="250.0" cy="453.7" r="4" fill="#d1495b"><title>uint64_limbs: 16 bytes, 0.010078 ms, 18 samples</title></circle>
<circle cx="337.5" cy="453.7" r="4" fill="#d1495b"><title>uint64_limbs: 17 bytes, 0.010336 ms, 18 samples</title></circle>
<circle cx="425.0" cy="452.8" r="4" fill="#d1495b"><title>uint64_limbs: 64 bytes, 0.017387 ms, 18 samples</title></circle>
<circle cx="512.5" cy="449.1" r="4" fill="#d1495b"><title>uint64_limbs: 256 bytes, 0.045582 ms, 18 samples</title></circle>
<circle cx="600.0" cy="434.6" r="4" fill="#d1495b"><title>uint64_limbs: 1024 bytes, 0.158245 ms, 18 samples</title></circle>
<circle cx="687.5" cy="377.3" r="4" fill="#d1495b"><title>uint64_limbs: 4096 bytes, 0.603229 ms, 18 samples</title></circle>
<circle cx="775.0" cy="145.9" r="4" fill="#d1495b"><title>uint64_limbs: 16384 bytes, 2.399882 ms, 18 samples</title></circle>
<polyline points="75.0,454.4 162.5,454.1 250.0,454.3 337.5,454.3 425.0,454.3 512.5,454.3 600.0,454.1 687.5,453.4 775.0,451.0" fill="none" stroke="#167d9a" stroke-width="3"/>
<circle cx="75.0" cy="454.4" r="4" fill="#167d9a"><title>word_blocks: 0 bytes, 0.004387 ms, 18 samples</title></circle>
<circle cx="162.5" cy="454.1" r="4" fill="#167d9a"><title>word_blocks: 15 bytes, 0.007176 ms, 18 samples</title></circle>
<circle cx="250.0" cy="454.3" r="4" fill="#167d9a"><title>word_blocks: 16 bytes, 0.005062 ms, 18 samples</title></circle>
<circle cx="337.5" cy="454.3" r="4" fill="#167d9a"><title>word_blocks: 17 bytes, 0.005202 ms, 18 samples</title></circle>
<circle cx="425.0" cy="454.3" r="4" fill="#167d9a"><title>word_blocks: 64 bytes, 0.005178 ms, 18 samples</title></circle>
<circle cx="512.5" cy="454.3" r="4" fill="#167d9a"><title>word_blocks: 256 bytes, 0.005448 ms, 18 samples</title></circle>
<circle cx="600.0" cy="454.1" r="4" fill="#167d9a"><title>word_blocks: 1024 bytes, 0.006745 ms, 18 samples</title></circle>
<circle cx="687.5" cy="453.4" r="4" fill="#167d9a"><title>word_blocks: 4096 bytes, 0.012173 ms, 18 samples</title></circle>
<circle cx="775.0" cy="451.0" r="4" fill="#167d9a"><title>word_blocks: 16384 bytes, 0.031305 ms, 18 samples</title></circle>
<line x1="160" y1="82" x2="185" y2="82" stroke="#d1495b" stroke-width="3"/><text x="194" y="86" font-size="13">Old: UInt64 limbs</text>
<line x1="460" y1="82" x2="485" y2="82" stroke="#167d9a" stroke-width="3"/><text x="494" y="86" font-size="13">New: word blocks</text>
<text x="400" y="509" text-anchor="middle" font-size="13">Input size (equally spaced benchmark sizes)</text>
<text x="17" y="250" text-anchor="middle" font-size="13" transform="rotate(-90 17 250)">Median time (ms)</text>
<text x="400" y="542" text-anchor="middle" font-size="11">Median of 18 samples per point · Two runs · Lean 4.32.2 / macOS arm64 · Lower is faster</text>
</svg>